<svg xmlns="http://www.w3.org/2000/svg" viewBox="0 0 63.16 61.49"><defs><style>.cls-1{fill:#5d8bc8;}.cls-2{fill:#e58126;}.cls-3{fill:#0e4a73;}.cls-4{fill:#fbb03b;}</style></defs><title>Asset 1minefield_nav</title><g id="Layer_2" data-name="Layer 2"><g id="Layer_1-2" data-name="Layer 1"><path class="cls-1" d="M17.52,20.75,24.3,14,15.83,5.51C11.39,1.07,2.8,4.32,2,5.17s-4.11,9.45.34,13.89l8.46,8.46Z"/><rect class="cls-2" x="30.44" y="19.76" width="3.6" height="31.41" transform="translate(80.1 37.74) rotate(135)"/><path class="cls-3" d="M13.73,19.5s-1.29-2.69-.69-3.27,3.23.72,3.23.72l6.13,6.13-2.54,2.55Z"/><path class="cls-3" d="M54.52,57.75a19.54,19.54,0,0,0,3.75-5.17,14.84,14.84,0,0,0-6.39-4.25,11.45,11.45,0,0,0-4.79-.56l-2.48-2.48-.35.36h0l-1.84,1.83h0l-.35.36,2.48,2.48a11.39,11.39,0,0,0,.56,4.78,16.28,16.28,0,0,0,4.24,6.39A19.41,19.41,0,0,0,54.52,57.75Zm-8.47-3c-1-3-.39-5.34-.13-5.6s2.63-.85,5.6.14a12.84,12.84,0,0,1,4.86,2.92A18.64,18.64,0,0,1,49,59.6,12.82,12.82,0,0,1,46.05,54.74Z"/><rect class="cls-4" x="24.2" y="8.51" width="4.05" height="56.84" transform="translate(33.8 -7.72) rotate(45)"/><path class="cls-3" d="M57.71,21.23a53,53,0,0,0-7.09-8.69,52.2,52.2,0,0,0-8.7-7.09A52.17,52.17,0,0,0,31.52,0l-.63,1.1A82.31,82.31,0,0,1,41.25,7.46c2.37,1.8,4.25,3.48,4.25,4a21.45,21.45,0,0,1-1.35,3.23l2.17,2.17L48.49,19a21,21,0,0,1,3.23-1.35c.5,0,2.17,1.88,4,4.25a82.31,82.31,0,0,1,6.36,10.36l1.1-.64A52.47,52.47,0,0,0,57.71,21.23Z"/></g></g></svg>